# xmcd
#
# Track frame offsets:
# 150
# 21240
# 36226
# 50959
# 64593
# 83296
#
# Disc length: 1366 seconds
#
#
# Revision: 0
# Processed by: cddbd v1.5.1PL0 Copyright (c) Steve Scherf et al.
# Submitted via: FreeRIP 2.942 
#
DISCID=46055406
DTITLE=joao paulo e daniel - Cidade
DYEAR=1900
DGENRE=country
TTITLE0=Estou Apaixonado
TTITLE1=Eu Me Amarrei
TTITLE2=Toma Conta de Mim
TTITLE3=Só dá Você na Minha Vida
TTITLE4=Minha Estrela Perdida
TTITLE5=Que Dure para Sempre
EXTD=Lucilo Carlos Tinós
EXTT0=
EXTT1=
EXTT2=
EXTT3=
EXTT4=
EXTT5=
PLAYORDER=
